# xmcd
#
# Track frame offsets:
#	150
#	8389
#	14465
#	22677
#	29796
#	36985
#	43694
#	52843
#	57245
#	62642
#	71362
#	76309
#	83998
#	95420
#	101491
#	107699
#	110841
#	137983
#	154228
#	172434
#	180952
#
# Disc length: 2636 seconds
#
# Revision: 1
# Processed by: cddbd v1.4PL0 Copyright (c) Steve Scherf et al.
# Submitted via: audiograbber 1.82.02
#
DISCID=110a4a15
DTITLE=Rudolf Koro Ulehla - Vendrfex
DYEAR=2003
DGENRE=Other
TTITLE0=Ano Ne
TTITLE1=Kamoun Kamoun
TTITLE2=Ten Den Je Blizko
TTITLE3=Vaking Blu
TTITLE4=Babylon
TTITLE5=Mas Peu Pou
TTITLE6=Seci Ludia Vravia
TTITLE7=Evo
TTITLE8=Ide Postar Ide
TTITLE9=Ketuno Keres
TTITLE10=Vendrfex
TTITLE11=So Marina
TTITLE12=Odidem Ja Do Mexika
TTITLE13=Dzuly
TTITLE14=Mesecusec
TTITLE15=Hukot
TTITLE16=DJ Earlo (Vaking Blu Hysterix Ego Mix)
TTITLE17=Happy Melon - Rudko
TTITLE18=Puding Pani Elvisovej - Rudyho Dred Mix
TTITLE19=Veneer - Koro Munki Mix
TTITLE20=Josh - Rudy - Josh Vendrfex Fool Mix
EXTD=BaBi
EXTT0=
EXTT1=
EXTT2=
EXTT3=
EXTT4=
EXTT5=
EXTT6=
EXTT7=
EXTT8=
EXTT9=
EXTT10=
EXTT11=
EXTT12=
EXTT13=
EXTT14=
EXTT15=
EXTT16=
EXTT17=
EXTT18=
EXTT19=
EXTT20=
PLAYORDER=
